<svg width="37" height="11" viewBox="0 0 37 11"  xmlns="http://www.w3.org/2000/svg">
<g clip-path="url(#clip0_248_67)">
<path d="M4.87999 6.76C4.37999 6.76 3.55999 6.72 3.55999 6.17C3.55999 5.88 3.80999 5.61 3.91999 5.61C4.07999 5.61 3.97999 5.66 4.40999 5.66C6.85999 5.66 9.02999 3.38 9.02999 2.13C9.02999 1.66 8.72999 1.34 8.01999 1.34C5.73999 1.34 3.57999 4.83 3.10999 5.74C2.62999 6.65 1.73999 9.48 1.66999 9.73C1.58999 10.03 0.84999 10.52 0.24999 10.52C0.0499902 10.52 -0.0100098 10.39 -0.0100098 10.23C-0.0100098 10.06 0.0599902 9.88 0.0899902 9.83C0.52999 8.79 1.41999 4.83 1.41999 3.4C1.41999 2.88 1.00999 2.46 1.00999 2.39C1.00999 2.15 1.49999 1.83 1.98999 1.83C2.52999 1.83 3.07999 2.21 3.07999 3.5C4.49999 1.25 6.61999 0 8.16999 0C9.86999 0 10.58 0.82 10.58 1.87C10.58 3.87 8.04999 6.76 4.87999 6.76Z" fill="#231815"/>
<path d="M8.70996 10.23C7.99996 10.23 7.32996 9.87 7.32996 8.93C7.32996 8.29 7.55996 6.89 7.90996 6.36C8.14996 6.23 8.87996 6.02 9.14996 6.02C9.31996 6.02 9.39996 6.13 9.39996 6.24C9.39996 6.43 8.89996 7.51 8.89996 8C8.89996 8.44 9.09996 8.84 9.59996 8.84C10.1 8.84 9.99996 8.59 10.34 8.59C10.5 8.59 10.68 8.64 10.74 8.87C10.74 9.6 9.65996 10.22 8.71996 10.22L8.70996 10.23ZM8.62996 4.87C8.62996 4.87 8.18996 4.87 8.18996 4.59C8.22996 4.37 8.42996 3.75 8.60996 3.39C8.72996 3.16 8.96996 3.09 9.24996 3.09C9.49996 3.09 10.01 3.13 10.01 3.45C10.01 3.75 9.82996 4.79 8.63996 4.87H8.62996Z" fill="#231815"/>
<path d="M14.45 8.88999C14.46 9.18999 14.57 9.29999 14.74 9.29999C15.12 9.29999 15.8 8.70999 16.06 8.70999C16.17 8.70999 16.38 8.80999 16.38 9.05999C16.37 9.67999 15.6 10.45 14.58 10.45C13.81 10.45 13.3 9.80999 13.3 9.06999C13.3 8.75999 13.59 8.41999 13.89 8.28999C14.38 8.05999 15.33 7.43999 15.33 7.18999C15.33 7.12999 15.27 7.07999 15.11 7.07999C14.81 7.07999 13.82 7.67999 13.29 8.28999C12.75 8.90999 12.45 9.41999 12.14 9.96999C12.08 10.08 11.91 10.15 11.68 10.15C11.32 10.09 10.8 9.98999 10.8 9.82999C10.8 7.83999 12.11 2.35999 12.44 1.56999C12.64 1.07999 13.29 0.98999 13.86 0.98999C14 0.98999 14.33 0.99999 14.33 1.14999C14.33 1.25999 14.23 1.45999 14.17 1.64999C14.1 1.90999 12.62 6.01999 12.5 7.28999C12.5 7.34999 12.5 7.41999 12.54 7.41999C12.55 7.41999 12.56 7.40999 12.58 7.39999C13.14 6.83999 14.13 5.91999 15.43 5.91999C16.34 5.91999 16.75 6.28999 16.75 6.79999C16.75 7.51999 15.9 8.47999 14.45 8.89999V8.88999Z" fill="#231815"/>
<path d="M19.2599 10.21C17.3399 10.21 16.5699 9.50001 16.5699 8.65001C16.5699 7.37001 18.3099 5.76001 20.4399 5.76001C21.2899 5.76001 21.5699 6.18001 21.5699 6.61001C21.5699 7.09001 21.0899 7.46001 20.7899 7.46001C20.4699 7.46001 20.3299 7.02001 19.9699 7.02001C18.8999 7.02001 17.9299 7.87001 17.9299 8.48001C17.9299 8.82001 18.2299 9.08001 18.9699 9.08001C20.7799 9.08001 21.0599 8.47001 21.6599 8.47001C21.9199 8.47001 22.0299 8.71001 22.0299 8.94001C22.0299 9.68001 20.6099 10.21 19.2499 10.21H19.2599Z" fill="#231815"/>
<path d="M27.1499 10.35C26.5899 10.35 26.0799 10.09 26.0799 9.51001C26.0799 8.99001 26.3699 8.57001 26.3699 8.39001C26.3699 8.33001 26.3499 8.29001 26.2399 8.29001C25.5199 8.29001 24.5299 9.47001 24.3699 9.75001C24.2699 9.92001 24.1799 10.31 23.6099 10.31C22.9899 10.31 22.7599 10.01 22.7599 9.63001C22.7599 8.93001 22.8099 8.09001 22.9399 7.23001C22.8699 7.24001 22.7999 7.24001 22.7199 7.24001C22.7199 7.24001 21.3199 7.22001 21.3199 6.72001C21.3199 6.56001 21.4199 6.40001 21.5399 6.40001C22.0999 6.40001 22.6399 6.32001 23.1499 6.18001C23.7399 3.46001 25.0799 0.76001 27.5799 0.76001C28.4099 0.76001 29.0199 1.19001 29.0199 1.83001C29.0199 3.75001 26.5399 5.88001 24.4699 6.80001C24.3899 7.28001 24.3499 7.65001 24.3499 7.77001C24.3499 7.83001 24.3599 7.87001 24.3999 7.87001C24.4099 7.87001 24.4399 7.86001 24.4599 7.85001C24.9999 7.42001 26.4099 6.52001 27.2699 6.52001C27.6399 6.52001 27.9699 6.64001 27.9699 7.04001C27.9699 7.27001 27.6899 8.14001 27.6899 8.52001C27.6899 8.90001 27.8899 8.90001 28.0499 8.90001C28.2699 8.90001 28.8499 8.88001 29.0499 8.80001C29.1299 8.78001 29.2099 8.75001 29.2899 8.75001C29.4299 8.75001 29.6299 8.91001 29.6299 9.12001C29.6299 9.74001 27.9199 10.34 27.1699 10.34L27.1499 10.35ZM26.6599 1.97001C25.7499 1.97001 25.0999 3.88001 24.7199 5.52001C26.2599 4.61001 27.2099 3.22001 27.2099 2.38001C27.2099 2.07001 26.9599 1.97001 26.6599 1.97001Z" fill="#231815"/>
<path d="M34.99 9.95001C34.61 9.95001 34.27 9.79001 34.08 9.37001C34.07 9.33001 34.04 9.31001 34.01 9.31001C33.82 9.31001 32.81 10.21 31.11 10.21C29.97 10.21 29.5 9.75001 29.5 9.13001C29.5 7.77001 31.73 5.60001 33.95 5.60001C34.38 5.60001 34.55 5.79001 34.55 6.03001C34.55 6.45001 34.05 7.01001 33.59 7.01001C32.63 7.01001 31.14 8.09001 31.14 8.62001C31.14 8.79001 31.3 8.91001 31.68 8.91001C32.39 8.91001 33.67 8.20001 34.68 7.27001C34.81 7.15001 34.97 7.07001 35.1 7.07001C35.24 7.07001 35.35 7.17001 35.35 7.42001C35.35 7.72001 35.25 8.08001 35.25 8.34001C35.25 8.57001 35.32 8.72001 35.56 8.72001C35.8 8.72001 36.15 8.56001 36.44 8.55001C36.69 8.55001 36.76 8.71001 36.76 8.86001C36.76 9.24001 35.79 9.94001 34.98 9.94001L34.99 9.95001Z" fill="#231815"/>
</g>
<defs>
<clipPath id="clip0_248_67">
<rect width="36.76" height="10.53" fill="white"/>
</clipPath>
</defs>
</svg>
