<svg width="303" height="254" viewBox="-20 0 303 254" fill="none" xmlns="http://www.w3.org/2000/svg">
<path d="M127.701 245.846C191.049 245.846 242.402 194.492 242.402 131.145C242.402 67.797 191.049 16.4436 127.701 16.4436C64.3533 16.4436 12.9999 67.797 12.9999 131.145C12.9999 194.492 64.3533 245.846 127.701 245.846Z" fill="url(#paint0_linear_5_1044)"/>
<path d="M189.581 43.134H62.5168C54.5967 43.134 48.1762 49.5545 48.1762 57.4746H203.922C203.922 49.5545 197.501 43.134 189.581 43.134Z" fill="url(#paint1_linear_5_1044)"/>
<path d="M48.1762 57.0828H203.922V175.701C203.922 180.975 201.827 186.033 198.098 189.762C194.369 193.491 189.311 195.586 184.037 195.586H68.0613C62.7874 195.586 57.7296 193.491 54.0004 189.762C50.2712 186.033 48.1762 180.975 48.1762 175.701V57.0828Z" fill="url(#paint2_linear_5_1044)"/>
<path d="M177.15 72.0654H74.9984C72.871 72.0654 71.1464 73.7881 71.1464 75.9132C71.1464 78.0383 72.871 79.761 74.9984 79.761H177.15C179.278 79.761 181.002 78.0383 181.002 75.9132C181.002 73.7881 179.278 72.0654 177.15 72.0654Z" fill="url(#paint3_linear_5_1044)"/>
<path d="M177.15 104.761H74.9984C72.871 104.761 71.1464 106.484 71.1464 108.609C71.1464 110.734 72.871 112.457 74.9984 112.457H177.15C179.278 112.457 181.002 110.734 181.002 108.609C181.002 106.484 179.278 104.761 177.15 104.761Z" fill="url(#paint4_linear_5_1044)"/>
<path d="M177.15 137.456H74.9984C72.871 137.456 71.1464 139.179 71.1464 141.304C71.1464 143.429 72.871 145.152 74.9984 145.152H177.15C179.278 145.152 181.002 143.429 181.002 141.304C181.002 139.179 179.278 137.456 177.15 137.456Z" fill="url(#paint5_linear_5_1044)"/>
<path d="M177.15 170.152H74.9984C72.8711 170.152 71.1465 171.875 71.1465 174C71.1465 176.125 72.8711 177.847 74.9984 177.847H177.15C179.278 177.847 181.002 176.125 181.002 174C181.002 171.875 179.278 170.152 177.15 170.152Z" fill="url(#paint6_linear_5_1044)"/>
<g filter="url(#filter0_d_5_1044)">
<path d="M74.3066 130.444H19.9123C15.5424 130.444 11.9999 133.986 11.9999 138.356V216.104C11.9999 220.474 15.5424 224.016 19.9123 224.016H74.3066C78.6764 224.016 82.2189 220.474 82.2189 216.104V138.356C82.2189 133.986 78.6764 130.444 74.3066 130.444Z" fill="url(#paint7_linear_5_1044)"/>
</g>
<g filter="url(#filter1_d_5_1044)">
<path d="M229.15 9H169.069C166.269 9 164 11.2696 164 14.0692V42.3086C164 45.1083 166.269 47.3778 169.069 47.3778H229.15C231.949 47.3778 234.219 45.1083 234.219 42.3086V14.0692C234.219 11.2696 231.949 9 229.15 9Z" fill="url(#paint8_linear_5_1044)"/>
</g>
<path d="M68.2368 169.338H25.982C24.5591 169.338 23.4057 170.492 23.4057 171.915V171.923C23.4057 173.346 24.5591 174.499 25.982 174.499H68.2368C69.6596 174.499 70.8131 173.346 70.8131 171.923V171.915C70.8131 170.492 69.6596 169.338 68.2368 169.338Z" fill="url(#paint9_linear_5_1044)"/>
<path d="M68.2608 205.653H26.3691C24.9585 205.653 23.8149 206.771 23.8149 208.149V208.157C23.8149 209.536 24.9585 210.653 26.3691 210.653H68.2608C69.6714 210.653 70.8149 209.536 70.8149 208.157V208.149C70.8149 206.771 69.6714 205.653 68.2608 205.653Z" fill="url(#paint10_linear_5_1044)"/>
<path d="M68.2608 186.653H26.3691C24.9585 186.653 23.8149 187.771 23.8149 189.149V189.157C23.8149 190.536 24.9585 191.653 26.3691 191.653H68.2608C69.6714 191.653 70.8149 190.536 70.8149 189.157V189.149C70.8149 187.771 69.6714 186.653 68.2608 186.653Z" fill="url(#paint11_linear_5_1044)"/>
<path d="M41.4317 142.45H29.0838C26.3486 142.45 24.1313 144.667 24.1313 147.402V150.829C24.1313 153.564 26.3486 155.782 29.0838 155.782H41.4317C44.1669 155.782 46.3842 153.564 46.3842 150.829V147.402C46.3842 144.667 44.1669 142.45 41.4317 142.45Z" fill="url(#paint12_linear_5_1044)"/>
<path d="M178.828 34.0127C182.047 34.0127 184.656 31.4034 184.656 28.1847C184.656 24.966 182.047 22.3568 178.828 22.3568C175.609 22.3568 173 24.966 173 28.1847C173 31.4034 175.609 34.0127 178.828 34.0127Z" fill="#81D5E7"/>
<path d="M199.655 34.0127C202.874 34.0127 205.483 31.4034 205.483 28.1847C205.483 24.966 202.874 22.3568 199.655 22.3568C196.436 22.3568 193.827 24.966 193.827 28.1847C193.827 31.4034 196.436 34.0127 199.655 34.0127Z" fill="#81D5E7"/>
<path d="M220.482 34.0127C223.701 34.0127 226.31 31.4034 226.31 28.1847C226.31 24.966 223.701 22.3568 220.482 22.3568C217.263 22.3568 214.654 24.966 214.654 28.1847C214.654 31.4034 217.263 34.0127 220.482 34.0127Z" fill="#81D5E7"/>
<path d="M204.681 173.017L189.92 189.289L231.525 227.027L246.285 210.754L204.681 173.017Z" fill="url(#paint13_linear_5_1044)"/>
<path fill-rule="evenodd" clip-rule="evenodd" d="M220.279 146.083C220.279 180.126 192.682 207.723 158.64 207.723C124.597 207.723 96.9999 180.126 96.9999 146.083C96.9999 112.041 124.597 84.4436 158.64 84.4436C192.682 84.4436 220.279 112.041 220.279 146.083ZM210.824 146.083C210.824 174.904 187.46 198.268 158.639 198.268C129.818 198.268 106.454 174.904 106.454 146.083C106.454 117.262 129.818 93.8985 158.639 93.8985C187.46 93.8985 210.824 117.262 210.824 146.083Z" fill="url(#paint14_linear_5_1044)"/>
<g filter="url(#filter2_b_5_1044)">
<path d="M158.64 198.268C187.461 198.268 210.825 174.904 210.825 146.083C210.825 117.262 187.461 93.8984 158.64 93.8984C129.819 93.8984 106.455 117.262 106.455 146.083C106.455 174.904 129.819 198.268 158.64 198.268Z" fill="url(#paint15_linear_5_1044)" fill-opacity="0.2"/>
</g>
<g filter="url(#filter3_f_5_1044)">
<ellipse cx="160.365" cy="174.906" rx="36.6853" ry="5.41942" fill="#EC5575" fill-opacity="0.56"/>
</g>
<path d="M117.968 210.905C118.486 208.761 121.535 208.761 122.053 210.905L123.795 218.121C123.98 218.887 124.578 219.485 125.344 219.67L132.56 221.412C134.704 221.929 134.704 224.979 132.56 225.497L125.344 227.239C124.578 227.423 123.98 228.022 123.795 228.788L122.053 236.004C121.535 238.148 118.486 238.148 117.968 236.004L116.226 228.788C116.041 228.022 115.443 227.423 114.677 227.239L107.461 225.497C105.317 224.979 105.317 221.929 107.461 221.412L114.677 219.67C115.443 219.485 116.041 218.887 116.226 218.121L117.968 210.905Z" fill="url(#paint16_linear_5_1044)"/>
<path d="M34.9679 18.9044C35.4855 16.7603 38.5351 16.7603 39.0527 18.9043L40.7946 26.1204C40.9795 26.8865 41.5777 27.4848 42.3439 27.6697L49.5599 29.4116C51.704 29.9292 51.704 32.9788 49.5599 33.4964L42.3439 35.2383C41.5777 35.4232 40.9795 36.0215 40.7946 36.7876L39.0527 44.0036C38.5351 46.1477 35.4855 46.1477 34.9679 44.0036L33.226 36.7876C33.0411 36.0215 32.4428 35.4232 31.6767 35.2383L24.4606 33.4964C22.3166 32.9788 22.3166 29.9292 24.4606 29.4116L31.6767 27.6697C32.4428 27.4848 33.0411 26.8865 33.226 26.1204L34.9679 18.9044Z" fill="url(#paint17_linear_5_1044)"/>
<path fill-rule="evenodd" clip-rule="evenodd" d="M123.128 20.0734C125.062 20.0734 126.63 18.5056 126.63 16.5716C126.63 14.6377 125.062 13.0699 123.128 13.0699C121.194 13.0699 119.626 14.6377 119.626 16.5716C119.626 18.5056 121.194 20.0734 123.128 20.0734ZM123.128 22.6997C126.512 22.6997 129.256 19.9561 129.256 16.5716C129.256 13.1872 126.512 10.4436 123.128 10.4436C119.744 10.4436 117 13.1872 117 16.5716C117 19.9561 119.744 22.6997 123.128 22.6997Z" fill="url(#paint18_linear_5_1044)"/>
<path d="M232.014 116.497C231.681 115.191 232.887 114.014 234.185 114.379L242.943 116.84C244.241 117.205 244.657 118.837 243.692 119.779L237.181 126.133C236.217 127.074 234.595 126.619 234.262 125.313L232.014 116.497Z" fill="url(#paint19_linear_5_1044)"/>
<path d="M26.7127 101.462C28.0192 101.131 29.1944 102.338 28.8281 103.635L26.3555 112.39C25.9892 113.687 24.3561 114.101 23.4159 113.136L17.0699 106.617C16.1298 105.651 16.5876 104.03 17.8941 103.698L26.7127 101.462Z" fill="url(#paint20_linear_5_1044)"/>
<path d="M193.713 222.462C195.019 222.131 196.194 223.338 195.828 224.635L193.356 233.391C192.989 234.688 191.356 235.102 190.416 234.136L184.07 227.617C183.13 226.651 183.588 225.03 184.894 224.699L193.713 222.462Z" fill="url(#paint21_linear_5_1044)"/>
<path fill-rule="evenodd" clip-rule="evenodd" d="M240.128 71.0734C242.062 71.0734 243.63 69.5056 243.63 67.5716C243.63 65.6377 242.062 64.0699 240.128 64.0699C238.194 64.0699 236.626 65.6377 236.626 67.5716C236.626 69.5056 238.194 71.0734 240.128 71.0734ZM240.128 73.6997C243.512 73.6997 246.256 70.9561 246.256 67.5716C246.256 64.1872 243.512 61.4436 240.128 61.4436C236.743 61.4436 234 64.1872 234 67.5716C234 70.9561 236.743 73.6997 240.128 73.6997Z" fill="url(#paint22_linear_5_1044)"/>
<path d="M231.522 227.029L246.282 210.756L248.505 212.773C250.662 214.729 251.954 217.463 252.096 220.372C252.237 223.28 251.218 226.126 249.261 228.283V228.283C247.305 230.44 244.571 231.732 241.662 231.874C238.754 232.015 235.908 230.996 233.751 229.039L231.527 227.023L231.522 227.029Z" fill="#65C8DE"/>
<defs>
<filter id="filter0_d_5_1044" x="-9.15527e-05" y="122.444" width="100.219" height="123.573" filterUnits="userSpaceOnUse" color-interpolation-filters="sRGB">
<feFlood flood-opacity="0" result="BackgroundImageFix"/>
<feColorMatrix in="SourceAlpha" type="matrix" values="0 0 0 0 0 0 0 0 0 0 0 0 0 0 0 0 0 0 127 0" result="hardAlpha"/>
<feOffset dx="3" dy="7"/>
<feGaussianBlur stdDeviation="7.5"/>
<feComposite in2="hardAlpha" operator="out"/>
<feColorMatrix type="matrix" values="0 0 0 0 0.104618 0 0 0 0 0.465612 0 0 0 0 0.545833 0 0 0 0.15 0"/>
<feBlend mode="normal" in2="BackgroundImageFix" result="effect1_dropShadow_5_1044"/>
<feBlend mode="normal" in="SourceGraphic" in2="effect1_dropShadow_5_1044" result="shape"/>
</filter>
<filter id="filter1_d_5_1044" x="157" y="0" width="96.219" height="64.3778" filterUnits="userSpaceOnUse" color-interpolation-filters="sRGB">
<feFlood flood-opacity="0" result="BackgroundImageFix"/>
<feColorMatrix in="SourceAlpha" type="matrix" values="0 0 0 0 0 0 0 0 0 0 0 0 0 0 0 0 0 0 127 0" result="hardAlpha"/>
<feOffset dx="6" dy="4"/>
<feGaussianBlur stdDeviation="6.5"/>
<feComposite in2="hardAlpha" operator="out"/>
<feColorMatrix type="matrix" values="0 0 0 0 0.104618 0 0 0 0 0.465612 0 0 0 0 0.545833 0 0 0 0.09 0"/>
<feBlend mode="normal" in2="BackgroundImageFix" result="effect1_dropShadow_5_1044"/>
<feBlend mode="normal" in="SourceGraphic" in2="effect1_dropShadow_5_1044" result="shape"/>
</filter>
<filter id="filter2_b_5_1044" x="89.7798" y="77.2233" width="137.72" height="137.72" filterUnits="userSpaceOnUse" color-interpolation-filters="sRGB">
<feFlood flood-opacity="0" result="BackgroundImageFix"/>
<feGaussianBlur in="BackgroundImageFix" stdDeviation="8.33757"/>
<feComposite in2="SourceAlpha" operator="in" result="effect1_backgroundBlur_5_1044"/>
<feBlend mode="normal" in="SourceGraphic" in2="effect1_backgroundBlur_5_1044" result="shape"/>
</filter>
<filter id="filter3_f_5_1044" x="102.836" y="148.643" width="115.058" height="52.5267" filterUnits="userSpaceOnUse" color-interpolation-filters="sRGB">
<feFlood flood-opacity="0" result="BackgroundImageFix"/>
<feBlend mode="normal" in="SourceGraphic" in2="BackgroundImageFix" result="shape"/>
<feGaussianBlur stdDeviation="10.422" result="effect1_foregroundBlur_5_1044"/>
</filter>
<linearGradient id="paint0_linear_5_1044" x1="126.817" y1="-20.9058" x2="129.166" y2="381.907" gradientUnits="userSpaceOnUse">
<stop stop-color="white" stop-opacity="0"/>
<stop offset="1" stop-color="#8EE2F4"/>
</linearGradient>
<linearGradient id="paint1_linear_5_1044" x1="47.9998" y1="46.4436" x2="204" y2="57.4436" gradientUnits="userSpaceOnUse">
<stop stop-color="#90E3F5"/>
<stop offset="1" stop-color="#65C8DE"/>
</linearGradient>
<linearGradient id="paint2_linear_5_1044" x1="43.4998" y1="160.944" x2="268.5" y2="164.944" gradientUnits="userSpaceOnUse">
<stop stop-color="white"/>
<stop offset="1" stop-color="#BCF3FF"/>
</linearGradient>
<linearGradient id="paint3_linear_5_1044" x1="66.5001" y1="79.4436" x2="187.5" y2="79.4436" gradientUnits="userSpaceOnUse">
<stop stop-color="#65C8DE"/>
<stop offset="1" stop-color="#D2F7FF"/>
</linearGradient>
<linearGradient id="paint4_linear_5_1044" x1="66.5001" y1="112.139" x2="187.5" y2="112.139" gradientUnits="userSpaceOnUse">
<stop stop-color="#65C8DE"/>
<stop offset="1" stop-color="#D2F7FF"/>
</linearGradient>
<linearGradient id="paint5_linear_5_1044" x1="66.5001" y1="144.835" x2="187.5" y2="144.835" gradientUnits="userSpaceOnUse">
<stop stop-color="#65C8DE"/>
<stop offset="1" stop-color="#D2F7FF"/>
</linearGradient>
<linearGradient id="paint6_linear_5_1044" x1="66.5002" y1="177.53" x2="187.5" y2="177.53" gradientUnits="userSpaceOnUse">
<stop stop-color="#65C8DE"/>
<stop offset="1" stop-color="#D2F7FF"/>
</linearGradient>
<linearGradient id="paint7_linear_5_1044" x1="9.89153" y1="200.612" x2="144.478" y2="211.665" gradientUnits="userSpaceOnUse">
<stop stop-color="white"/>
<stop offset="1" stop-color="#BCF3FF"/>
</linearGradient>
<linearGradient id="paint8_linear_5_1044" x1="161.892" y1="37.7787" x2="263.281" y2="40.7116" gradientUnits="userSpaceOnUse">
<stop stop-color="white"/>
<stop offset="1" stop-color="#BCF3FF"/>
</linearGradient>
<linearGradient id="paint9_linear_5_1044" x1="76.3149" y1="174.653" x2="19.3149" y2="174.653" gradientUnits="userSpaceOnUse">
<stop stop-color="#D2F7FF"/>
<stop offset="1" stop-color="#65C8DE"/>
</linearGradient>
<linearGradient id="paint10_linear_5_1044" x1="76.2694" y1="210.802" x2="19.7593" y2="210.802" gradientUnits="userSpaceOnUse">
<stop stop-color="#D2F7FF"/>
<stop offset="1" stop-color="#65C8DE"/>
</linearGradient>
<linearGradient id="paint11_linear_5_1044" x1="76.2694" y1="191.802" x2="19.7593" y2="191.802" gradientUnits="userSpaceOnUse">
<stop stop-color="#D2F7FF"/>
<stop offset="1" stop-color="#65C8DE"/>
</linearGradient>
<linearGradient id="paint12_linear_5_1044" x1="61.8149" y1="155.653" x2="21.3149" y2="155.653" gradientUnits="userSpaceOnUse">
<stop offset="0.243799" stop-color="#D2F7FF"/>
<stop offset="1" stop-color="#6BCBE0"/>
</linearGradient>
<linearGradient id="paint13_linear_5_1044" x1="199.505" y1="198.017" x2="214.405" y2="181.675" gradientUnits="userSpaceOnUse">
<stop stop-color="#90E3F5"/>
<stop offset="1" stop-color="#65C8DE"/>
</linearGradient>
<linearGradient id="paint14_linear_5_1044" x1="96.8603" y1="112.895" x2="220.95" y2="113.7" gradientUnits="userSpaceOnUse">
<stop stop-color="#90E3F5"/>
<stop offset="1" stop-color="#65C8DE"/>
</linearGradient>
<linearGradient id="paint15_linear_5_1044" x1="158.64" y1="93.8984" x2="211.225" y2="230.351" gradientUnits="userSpaceOnUse">
<stop stop-color="white"/>
<stop offset="1" stop-color="#D2F7FF"/>
</linearGradient>
<linearGradient id="paint16_linear_5_1044" x1="98.9524" y1="212.142" x2="141.249" y2="212.416" gradientUnits="userSpaceOnUse">
<stop stop-color="#90E3F5"/>
<stop offset="1" stop-color="#65C8DE"/>
</linearGradient>
<linearGradient id="paint17_linear_5_1044" x1="15.9523" y1="20.1414" x2="58.2492" y2="20.416" gradientUnits="userSpaceOnUse">
<stop stop-color="#90E3F5"/>
<stop offset="1" stop-color="#65C8DE"/>
</linearGradient>
<linearGradient id="paint18_linear_5_1044" x1="116.986" y1="13.2721" x2="129.323" y2="13.3522" gradientUnits="userSpaceOnUse">
<stop stop-color="#90E3F5"/>
<stop offset="1" stop-color="#65C8DE"/>
</linearGradient>
<linearGradient id="paint19_linear_5_1044" x1="227.808" y1="122.578" x2="240.5" y2="110.351" gradientUnits="userSpaceOnUse">
<stop stop-color="#90E3F5"/>
<stop offset="1" stop-color="#65C8DE"/>
</linearGradient>
<linearGradient id="paint20_linear_5_1044" x1="20.6366" y1="97.248" x2="32.8478" y2="109.956" gradientUnits="userSpaceOnUse">
<stop stop-color="#90E3F5"/>
<stop offset="1" stop-color="#65C8DE"/>
</linearGradient>
<linearGradient id="paint21_linear_5_1044" x1="187.637" y1="218.248" x2="199.848" y2="230.956" gradientUnits="userSpaceOnUse">
<stop stop-color="#90E3F5"/>
<stop offset="1" stop-color="#65C8DE"/>
</linearGradient>
<linearGradient id="paint22_linear_5_1044" x1="233.986" y1="64.2721" x2="246.323" y2="64.3522" gradientUnits="userSpaceOnUse">
<stop stop-color="#90E3F5"/>
<stop offset="1" stop-color="#65C8DE"/>
</linearGradient>
</defs>
</svg>
