<svg width="11" height="11" viewBox="0 0 11 11" fill="none" xmlns="http://www.w3.org/2000/svg">
<g clip-path="url(#clip0_248_76)">
<path d="M4.87999 6.76C4.37999 6.76 3.55999 6.72 3.55999 6.17C3.55999 5.88 3.80999 5.61 3.91999 5.61C4.07999 5.61 3.97999 5.66 4.40999 5.66C6.85999 5.66 9.02999 3.38 9.02999 2.13C9.02999 1.66 8.72999 1.34 8.01999 1.34C5.73999 1.34 3.57999 4.83 3.10999 5.74C2.62999 6.65 1.73999 9.48 1.66999 9.73C1.58999 10.03 0.84999 10.52 0.24999 10.52C0.0499902 10.52 -0.0100098 10.39 -0.0100098 10.23C-0.0100098 10.06 0.0599902 9.88 0.0899902 9.83C0.52999 8.79 1.41999 4.83 1.41999 3.4C1.41999 2.88 1.00999 2.46 1.00999 2.39C1.00999 2.15 1.49999 1.83 1.98999 1.83C2.52999 1.83 3.07999 2.21 3.07999 3.5C4.49999 1.25 6.61999 0 8.16999 0C9.86999 0 10.58 0.82 10.58 1.87C10.58 3.87 8.04999 6.76 4.87999 6.76Z" fill="#231815"/>
</g>
<defs>
<clipPath id="clip0_248_76">
<rect width="10.58" height="10.53" fill="white"/>
</clipPath>
</defs>
</svg>
